<svg xmlns="http://www.w3.org/2000/svg" width="1153.491" height="302.257" viewBox="0 0 1153.491 302.257">
  <g id="Grupo_16355" data-name="Grupo 16355" transform="translate(0 -36.68)">
    <path id="Caminho_4084" data-name="Caminho 4084" d="M33.94,99.26l21.62-.169L81.74,10.246,106.4,99.091H128.19L162.985-18.3H142.378L117.887,76.8,93.4-18.3H71.775L45.425,77.3,21.1-18.3H.665ZM218.049,20.718c14.357,0,25.674,9.121,26.012,23.478H192.544C194.57,29.5,205.043,20.718,218.049,20.718Zm43.578,50.672H240.851C237.3,78.654,230.717,84.4,218.893,84.4c-14.188,0-25.167-9.29-26.518-24.66h71.11a59.4,59.4,0,0,0,.676-9.459c0-27.363-18.749-45.774-45.267-45.774-27.532,0-46.449,18.749-46.449,47.97s19.762,48.139,46.449,48.139C241.7,100.611,256.39,87.606,261.627,71.391Zm40.707-51.517V-25.9H283.078V99.091h19.255V85.579c6.081,8.108,17.06,15.033,32.43,15.033,24.492,0,43.747-19.762,43.747-48.476S359.424,4.5,334.763,4.5C320.068,4.5,308.414,11.428,302.333,19.874Zm56.584,32.261c0,20.1-13.85,31.755-28.376,31.755-14.357,0-28.207-11.317-28.207-31.417,0-19.931,13.85-31.248,28.207-31.248C345.067,21.225,358.917,32.035,358.917,52.135Z" transform="translate(378.966 170.777)" fill="#23233c"/>
    <path id="Caminho_4085" data-name="Caminho 4085" d="M1.36-8.436V48.911H27.7V44.234H7.1V-8.436ZM60.511,48.911h5.743V4.116H60.511ZM63.383-4.334A4.168,4.168,0,0,0,67.567-8.6a4.1,4.1,0,0,0-4.184-4.184A4.1,4.1,0,0,0,59.2-8.6,4.168,4.168,0,0,0,63.383-4.334Zm37.9,30.765c0,14.029,9.106,23.135,21.413,23.135,8.86,0,15.1-4.758,17.721-10.665V48.911h5.743V-11.8h-5.743V13.8C137.547,7.89,130.82,3.46,122.78,3.46,110.392,3.46,101.285,12.4,101.285,26.431Zm39.133.082c0,11.158-7.466,18.049-16.654,18.049-9.435,0-16.654-6.809-16.654-18.131,0-11.4,7.22-17.967,16.654-17.967C132.953,8.465,140.419,15.356,140.419,26.513Zm62.6-18.131c8.286,0,15.834,5.251,15.588,15.67H187.1C187.756,13.633,194.894,8.382,203.016,8.382Zm20.756,26.335H217.7c-1.641,5.989-6.809,10.009-14.439,10.009-8.368,0-15.67-5.5-16.162-16h37.164a39.275,39.275,0,0,0,.164-4.512c0-11.4-8.04-20.756-21.166-20.756-12.88,0-21.987,8.778-21.987,23.053,0,14.193,9.271,23.053,21.987,23.053C214.5,49.567,221.721,43.168,223.772,34.718Zm41.513-10.829c0-11.24,6.317-14.6,13.783-14.6h1.559V3.3c-7.712,0-12.88,3.282-15.342,8.778V4.116h-5.743V48.911h5.743Z" transform="translate(381.625 56.877)" fill="#23233c"/>
    <path id="Caminho_1954" data-name="Caminho 1954" d="M13828.477,12517.1c-33.32,1.563-59.687,30.27-59.687,63.238a63.554,63.554,0,0,0,63.344,63.426q50.6,0,101.2-.023,50.6.006,101.2.023c34.742,0,62.461-28.391,62.906-63.395.539-42.281-36.406-63.613-63.3-63.375-11.039-44.984-51.352-78.352-99.406-78.352-49.336,0-88.945,32.754-100.094,78.7A27.512,27.512,0,0,0,13828.477,12517.1Zm208.578,28.574a34.678,34.678,0,0,1,32,34.7c0,18.59-16.625,34.281-32.883,34.789l-10.914-.055-19.078-.031C14024.031,12597.211,14036.063,12572.781,14037.055,12545.672Zm-93.164,69.285-10.562-.02c-34.094-.062-68.336.117-102.047.18-17.57.031-33.68-17.086-33.68-34.75a34.723,34.723,0,0,1,28.4-34.238c1.633-.254,19.984-2.77,40.383,9.4,5.289,2.965,10.109-2.766,8.3-6.937a57.629,57.629,0,0,0-12.445-18.227c3.438-35.855,36.906-62.9,72.484-62.836,40.281.063,74.086,34.023,73.742,74.3C14008.141,12582.094,13978.359,12608.727,13943.891,12614.957Z" transform="translate(-13768.789 -12394.186)" fill="#ff9500" fill-rule="evenodd"/>
    <g id="Grupo_16148" data-name="Grupo 16148" transform="translate(772.077 36.68)">
      <path id="Caminho_4082" data-name="Caminho 4082" d="M262.216.124a15.407,15.407,0,0,1-10.327,8.606Q245,10.452,241.561,6.321q-1.377-1.377-.688-6.541T249.135-4.7q4.131,0,6.885-4.131t-4.82-9.639q-10.327-8.262-29.261-9.295a232.38,232.38,0,0,0-39.589,1.377q-20.655,2.41-40.621,5.852T109.37-15.711L83.9-12.957,65.306,83.433q26.851,0,36.835-.688t11.36,4.131q0,4.819-2.754,4.819-16.524-1.377-46.129,0-4.131,28.228-6.885,51.982t-3.787,41.31q-1.033,17.557-1.033,28.573T54.29,226.64a12.255,12.255,0,0,1,2.41,7.918q-.344,3.787-2.41,4.819t-5.508-2.066q-3.442-3.1-6.885-12.737-8.262-20.655-8.95-54.736t4.819-77.456H28.471q-5.164,0-16.18-.689Q8.849,90.318,8.5,87.908t3.1-2.41l27.54-1.377q4.819-33.048,7.229-54.391T51.536-10.2Q26.75-8.826,14.013-13.99T4.718-37.743Q6.1-45.316,10.57-47.038a10.625,10.625,0,0,1,7.918-.344Q21.93-46,21.93-41.53t-6.885,9.295Q4.718-24.661,17.8-22.252t35.8-1.033l2.754-15.147a11.417,11.417,0,0,1,4.475-8.262,48.386,48.386,0,0,1,6.541-4.131q13.77-2.065,18.245,4.475a22.176,22.176,0,0,1,3.787,14.8,2.723,2.723,0,0,1-.344,1.721,1.4,1.4,0,0,0-.344,1.033L119.7-34.3q11.016-2.065,30.982-3.787a400.407,400.407,0,0,1,40.966-1.377,197.15,197.15,0,0,1,39.589,4.475q18.589,4.131,26.851,13.77a27.846,27.846,0,0,1,5.164,9.639A16.217,16.217,0,0,1,262.216.124Z" transform="translate(-3.986 51.32)" fill="#ff9500"/>
      <path id="Caminho_4083" data-name="Caminho 4083" d="M42.791,32.641Q54.4,33.7,60.466,40.028a34.7,34.7,0,0,1,8.442,14.51,48.358,48.358,0,0,1,1.847,16.62Q70.228,79.6,69.7,84.349q-1.055,3.166-2.9,10.289a56.488,56.488,0,0,1-5.013,12.927,17.346,17.346,0,0,0,4.221.528,9.8,9.8,0,0,0,5.013-1.847,23.4,23.4,0,0,0,6.068-6.332A131.07,131.07,0,0,0,85,86.459q4.749-4.221,5.8-2.111a5.591,5.591,0,0,1,0,4.749q-7.387,15.829-16.093,21.9t-15.565,1.847Q52.816,123.394,45.165,129.2T26.434,135q-8.97,0-14.246-4.749a34.638,34.638,0,0,1-8.442-11.872A54.588,54.588,0,0,1-.475,103.344,108.824,108.824,0,0,1-1.531,89.1Q.052,64.3,11.924,48.206T42.791,32.641ZM51.76,110.2q-2.638-1.583-3.43-6.6a24.171,24.171,0,0,1,.528-10.025,17.268,17.268,0,0,1,5.013-8.442,11.735,11.735,0,0,1,9.5-2.9,28,28,0,0,0,1.319-10.816,53.656,53.656,0,0,0-2.111-12.927A35.927,35.927,0,0,0,57.3,47.414q-3.43-4.749-8.178-4.749a19.657,19.657,0,0,0-15.038,5.54A46.4,46.4,0,0,0,23.268,63.771,84.756,84.756,0,0,0,17.2,84.349a85.007,85.007,0,0,0-1.055,20.842q.791,9.761,3.957,16.093t9.5,6.332a17.016,17.016,0,0,0,13.718-6.332A133.826,133.826,0,0,0,51.76,110.2Zm70.7-77.562q11.608,1.055,17.676,7.387a34.7,34.7,0,0,1,8.442,14.51,48.358,48.358,0,0,1,1.847,16.62q-.528,8.442-1.055,13.191-1.055,3.166-2.9,10.289a56.488,56.488,0,0,1-5.013,12.927,17.346,17.346,0,0,0,4.221.528,9.8,9.8,0,0,0,5.013-1.847,23.4,23.4,0,0,0,6.068-6.332,131.07,131.07,0,0,0,7.915-13.455q4.749-4.221,5.8-2.111a5.591,5.591,0,0,1,0,4.749q-7.387,15.829-16.093,21.9t-15.565,1.847q-6.332,10.553-13.982,16.357T106.107,135q-8.97,0-14.246-4.749a34.639,34.639,0,0,1-8.442-11.872A54.588,54.588,0,0,1,79.2,103.344,108.824,108.824,0,0,1,78.142,89.1Q79.725,64.3,91.6,48.206T122.463,32.641Zm8.97,77.562q-2.638-1.583-3.43-6.6a24.171,24.171,0,0,1,.528-10.025,17.268,17.268,0,0,1,5.013-8.442,11.735,11.735,0,0,1,9.5-2.9,28,28,0,0,0,1.319-10.816,53.657,53.657,0,0,0-2.111-12.927,35.927,35.927,0,0,0-5.276-11.08q-3.43-4.749-8.178-4.749a19.657,19.657,0,0,0-15.038,5.54,46.4,46.4,0,0,0-10.816,15.565,84.757,84.757,0,0,0-6.068,20.578,85.007,85.007,0,0,0-1.055,20.842q.791,9.761,3.957,16.093t9.5,6.332a17.016,17.016,0,0,0,13.718-6.332A133.826,133.826,0,0,0,131.433,110.2ZM253.844-34.9a22.2,22.2,0,0,1,10.025,5.8q7.915,9.5,7.914,25.063a108.824,108.824,0,0,1-4.749,31.394,161.419,161.419,0,0,1-12.4,30.075q-7.651,14.246-14.51,21.105a13.724,13.724,0,0,0-.528,4.221q-3.166,22.688-1.319,32.186t6.6,10.025q4.749,0,8.442-5.276a83.943,83.943,0,0,0,7.387-13.455,141.721,141.721,0,0,0,6.6-17.94q2.9-9.761,6.068-18.731,2.111-7.387,5.54-7.387t1.319,9.5q-2.638,9.5-5.8,20.842a122.311,122.311,0,0,1-7.651,20.578,47.116,47.116,0,0,1-11.08,15.038,18.406,18.406,0,0,1-15.038,4.749q-8.97-1.055-13.455-7.915t-5.54-17.412q-11.608,19.522-21.9,23.216t-18.2,1.055q-7.915-2.638-14.51-13.191t-5.54-27.437a83.081,83.081,0,0,1,8.178-31.922q7.123-14.51,24.535-21.369,9.5-4.221,17.676-3.166a37.607,37.607,0,0,1,16.093,6.332q2.638-20.578,4.749-38.517a262.285,262.285,0,0,1,4.749-29.02q1.583-7.387,6.6-8.442A22.832,22.832,0,0,1,253.844-34.9ZM227.462,48.47a20.92,20.92,0,0,0-7.915-2.9Q216.382,45.3,209,46.887,197.387,50.053,190,61.924a79.5,79.5,0,0,0-10.289,25.063,66.363,66.363,0,0,0-1.055,24.8q1.847,11.608,9.234,13.718,4.749,1.583,10.289-3.166A61.458,61.458,0,0,0,209,109.675a111.507,111.507,0,0,0,9.234-16.884,64.513,64.513,0,0,0,5.013-15.829Zm14.774,14.774A162.1,162.1,0,0,0,252,45.3a156.536,156.536,0,0,0,8.442-21.9A92.526,92.526,0,0,0,264.4.983q.528-11.08-3.693-18.995Q257.538-5.877,252,16.02T242.236,63.244Z" transform="translate(100.384 107.311)" fill="#ff9500"/>
      <path id="Caminho_2" data-name="Caminho 2" d="M522.534,196.784c-11.445,100.3-245.41,60.673-304.923,93.07,29.132-51.658,119.941-48.193,119.941-48.193s94.042,1.982,125.955-5.355C495.077,229.052,516.862,212.089,522.534,196.784Z" transform="translate(-151.039 12.403)" fill="#ff9500" fill-rule="evenodd"/>
    </g>
    <path id="Ret창ngulo_111" data-name="Ret창ngulo 111" d="M0,0H222a0,0,0,0,1,0,0V5a10,10,0,0,1-10,10H10A10,10,0,0,1,0,5V0A0,0,0,0,1,0,0Z" transform="translate(58 265)" fill="#ff9500"/>
    <path id="Ret창ngulo_112" data-name="Ret창ngulo 112" d="M0,0H174a0,0,0,0,1,0,0V5a10,10,0,0,1-10,10H10A10,10,0,0,1,0,5V0A0,0,0,0,1,0,0Z" transform="translate(82 289)" fill="#ff9500"/>
  </g>
</svg>
